PathFileType	3	(X/Y/Z)	walking_3__fused_aligned.trc
DataRate	CameraRate	NumFrames	NumMarkers	Units	OrigDataRate	OrigDataStartFrame	OrigNumFrames
100.0	100.0	17	19	mm	100.0	1843	6307
Frame#	Time	pelvis			neck			head			hip_left			hip_right			knee_left			knee_right			ankle_left			ankle_right			heel_left			heel_right			toe_left			toe_right			shoulder_left			shoulder_right			elbow_left			elbow_right			wrist_left			wrist_right			
		X1	Y1	Z1	X2	Y2	Z2	X3	Y3	Z3	X4	Y4	Z4	X5	Y5	Z5	X6	Y6	Z6	X7	Y7	Z7	X8	Y8	Z8	X9	Y9	Z9	X10	Y10	Z10	X11	Y11	Z11	X12	Y12	Z12	X13	Y13	Z13	X14	Y14	Z14	X15	Y15	Z15	X16	Y16	Z16	X17	Y17	Z17	X18	Y18	Z18	X19	Y19	Z19	
1843	18.42000	68.153468	927.354974	130.475971	31.217280	1485.611242	222.305183	14.840662	1574.552905	368.890823	146.884494	930.703773	126.781884	-10.577612	924.006214	134.169957	158.436315	483.353180	78.670156	-48.477134	547.897042	393.062797	127.948500	156.170588	-165.738215	-74.476059	141.737347	410.947145	120.483676	132.081450	-214.865980	-76.242002	90.148402	383.579666	124.188702	27.050967	-50.458977	-73.909350	100.967112	600.303597	215.860306	1447.682904	211.915347	-132.066088	1421.853434	151.741185	314.888666	1169.954583	222.913405	-171.403359	1142.336122	52.242229	309.359538	958.954880	391.198874	-235.045068	874.702542	7.910089
1844	18.43000	65.713851	927.477960	131.606585	28.988881	1485.584402	223.792434	12.418066	1574.263687	370.405816	144.475278	930.612272	127.782360	-13.047599	924.343689	135.430698	156.946532	483.852164	81.746949	-50.435832	547.497921	392.656983	125.821479	160.710672	-170.109484	-76.565259	137.357506	416.017689	118.200875	137.918260	-219.915855	-78.570630	84.544077	389.000903	122.148925	27.635777	-58.566958	-75.427069	99.162952	609.237575	213.558392	1447.895003	213.310259	-134.110836	1421.731238	153.242672	312.703017	1170.188930	224.636738	-173.179642	1142.310398	52.577903	306.410878	959.788897	394.516917	-237.972298	873.817137	5.514559
1845	18.44000	63.274233	927.600946	132.737200	26.760481	1485.557562	225.279686	9.995471	1573.974470	371.920808	142.066061	930.520772	128.782835	-15.517586	924.681164	136.691439	155.456749	484.351148	84.823743	-52.394530	547.098799	392.251168	123.694459	165.250756	-174.480753	-78.654460	132.977665	421.088233	115.918074	143.755070	-224.965730	-80.899259	78.939752	394.422139	120.109147	28.220587	-66.674939	-76.944788	97.358793	618.171553	211.256477	1448.107102	214.705171	-136.155584	1421.609043	154.744159	310.517369	1170.423278	226.360071	-174.955925	1142.284673	52.913577	303.462219	960.622913	397.834959	-240.899528	872.931733	3.119029
1846	18.45000	60.834616	927.723932	133.867814	24.532081	1485.530722	226.766937	7.572876	1573.685253	373.435801	139.656845	930.429271	129.783310	-17.987572	925.018639	137.952179	153.966965	484.850132	87.900536	-54.353228	546.699677	391.845353	121.567438	169.790840	-178.852021	-80.743660	128.597824	426.158778	113.635274	149.591880	-230.015605	-83.227887	73.335427	399.843376	118.069369	28.805396	-74.782920	-78.462507	95.554633	627.105532	208.954562	1448.319202	216.100082	-138.200332	1421.486847	156.245646	308.331720	1170.657626	228.083405	-176.732209	1142.258948	53.249251	300.513560	961.456930	401.153001	-243.826759	872.046329	0.723500
1847	18.46000	58.394999	927.846918	134.998429	22.303682	1485.503882	228.254189	5.150280	1573.396035	374.950794	137.247628	930.337771	130.783785	-20.457559	925.356114	139.212920	152.477182	485.349116	90.977330	-56.311927	546.300555	391.439538	119.440418	174.330924	-183.223290	-82.832860	124.217983	431.229322	111.352473	155.428690	-235.065480	-85.556516	67.731103	405.264613	116.029592	29.390206	-82.890901	-79.980227	93.750474	636.039510	206.652648	1448.531301	217.494994	-140.245080	1421.364651	157.747133	306.146072	1170.891973	229.806738	-178.508492	1142.233223	53.584925	297.564900	962.290946	404.471044	-246.753989	871.160925	-1.672030
1848	18.47000	55.181866	928.365540	136.144070	19.389775	1485.769075	229.712067	2.733732	1573.160872	376.648747	134.087659	930.707486	131.994147	-23.723858	926.023644	140.293839	150.480580	487.203796	98.860730	-59.064346	544.817573	387.465832	117.684082	177.696736	-178.010976	-85.138577	121.939789	426.924373	109.617698	159.357911	-230.141350	-87.821248	65.309771	401.062056	113.655151	30.912007	-79.400921	-82.477744	92.117028	631.768009	203.606569	1448.968273	217.840358	-143.480873	1421.695862	160.232379	302.707359	1171.226321	228.707818	-181.961407	1142.409521	57.253809	294.968979	962.087888	401.533306	-248.431640	872.181470	3.986241
1849	18.48000	51.968732	928.884163	137.289710	16.475868	1486.034268	231.169945	0.317183	1572.925709	378.346700	130.927690	931.077200	133.204508	-26.990157	926.691173	141.374757	148.483977	489.058476	106.744131	-61.816765	543.334592	383.492126	115.927745	181.062549	-172.798663	-87.444294	119.661595	422.619424	107.882924	163.287133	-225.217220	-90.085980	62.888439	396.859499	111.280711	32.433808	-75.910942	-84.975261	90.483583	627.496509	200.560491	1449.405246	218.185721	-146.716667	1422.027072	162.717626	299.268646	1171.560670	227.608897	-185.414321	1142.585818	60.922692	292.373057	961.884830	398.595569	-250.109291	873.202014	9.644513
1850	18.49000	48.755599	929.402785	138.435351	13.561961	1486.299462	232.627823	-2.099366	1572.690546	380.044653	127.767722	931.446915	134.414870	-30.256456	927.358703	142.455676	146.487375	490.913157	114.627532	-64.569184	541.851611	379.518420	114.171409	184.428361	-167.586349	-89.750010	117.383401	418.314474	106.148149	167.216354	-220.293090	-92.350712	60.467107	392.656941	108.906270	33.955609	-72.420962	-87.472779	88.850138	623.225008	197.514412	1449.842218	218.531084	-149.952460	1422.358283	165.202872	295.829933	1171.895018	226.509977	-188.867236	1142.762115	64.591576	289.777136	961.681771	395.657831	-251.786943	874.222559	15.302784
1851	18.50000	45.542466	929.921407	139.580992	10.648054	1486.564655	234.085702	-4.515914	1572.455383	381.742607	124.607753	931.816630	135.625231	-33.522755	928.026233	143.536594	144.490772	492.767837	122.510933	-67.321603	540.368629	375.544714	112.415073	187.794173	-162.374035	-92.055727	115.105207	414.009525	104.413374	171.145576	-215.368960	-94.615445	58.045776	388.454384	106.531830	35.477410	-68.930982	-89.970296	87.216692	618.953507	194.468334	1450.279190	218.876447	-153.188253	1422.689493	167.688119	292.391220	1172.229366	225.411056	-192.320151	1142.938413	68.260459	287.181214	961.478713	392.720094	-253.464594	875.243103	20.961055
1852	18.51000	42.329332	930.440030	140.726632	7.734147	1486.829849	235.543580	-6.932463	1572.220220	383.440560	121.447784	932.186345	136.835592	-36.789053	928.693763	144.617513	142.494170	494.622517	130.394334	-70.074022	538.885648	371.571008	110.658737	191.159986	-157.161721	-94.361444	112.827013	409.704576	102.678600	175.074797	-210.444830	-96.880177	55.624444	384.251827	104.157390	36.999210	-65.441003	-92.467813	85.583247	614.682006	191.422255	1450.716163	219.221811	-156.424047	1423.020704	170.173365	288.952508	1172.563715	224.312136	-195.773065	1143.114710	71.929343	284.585293	961.275655	389.782356	-255.142245	876.263648	26.619327
1853	18.52000	39.116199	930.958652	141.872273	4.820240	1487.095042	237.001458	-9.349011	1571.985057	385.138513	118.287815	932.556060	138.045954	-40.055352	929.361293	145.698431	140.497567	496.477198	138.277735	-72.826441	537.402667	367.597302	108.902401	194.525798	-151.949407	-96.667161	110.548819	405.399626	100.943825	179.004019	-205.520700	-99.144909	53.203112	380.049270	101.782949	38.521011	-61.951023	-94.965331	83.949801	610.410506	188.376177	1451.153135	219.567174	-159.659840	1423.351914	172.658612	285.513795	1172.898063	223.213216	-199.225980	1143.291008	75.598226	281.989371	961.072596	386.844618	-256.819896	877.284192	32.277598
1854	18.53000	35.903066	931.477274	143.017914	1.906333	1487.360236	238.459336	-11.765560	1571.749894	386.836466	115.127846	932.925775	139.256315	-43.321651	930.028823	146.779350	138.500965	498.331878	146.161136	-75.578860	535.919685	363.623596	107.146065	197.891611	-146.737094	-98.972877	108.270625	401.094677	99.209050	182.933240	-200.596570	-101.409642	50.781781	375.846713	99.408509	40.042812	-58.461043	-97.462848	82.316356	606.139005	185.330098	1451.590107	219.912537	-162.895633	1423.683124	175.143858	282.075082	1173.232411	222.114295	-202.678895	1143.467305	79.267110	279.393450	960.869538	383.906881	-258.497548	878.304736	37.935870
1855	18.54000	32.689932	931.995897	144.163554	-1.007573	1487.625429	239.917214	-14.182109	1571.514731	388.534419	111.967877	933.295490	140.466677	-46.587950	930.696352	147.860268	136.504362	500.186558	154.044537	-78.331280	534.436704	359.649890	105.389729	201.257423	-141.524780	-101.278594	105.992432	396.789728	97.474276	186.862462	-195.672440	-103.674374	48.360449	371.644155	97.034068	41.564613	-54.971064	-99.960365	80.682911	601.867504	182.284019	1452.027080	220.257900	-166.131427	1424.014335	177.629105	278.636369	1173.566760	221.015375	-206.131809	1143.643602	82.935994	276.797528	960.666480	380.969143	-260.175199	879.325281	43.594141
1856	18.55000	29.476799	932.514519	145.309195	-3.921480	1487.890622	241.375092	-16.598657	1571.279568	390.232372	108.807909	933.665205	141.677038	-49.854249	931.363882	148.941187	134.507760	502.041239	161.927938	-81.083699	532.953723	355.676184	103.633393	204.623235	-136.312466	-103.584311	103.714238	392.484779	95.739501	190.791683	-190.748310	-105.939106	45.939117	367.441598	94.659628	43.086414	-51.481084	-102.457883	79.049465	597.596004	179.237941	1452.464052	220.603264	-169.367220	1424.345545	180.114351	275.197657	1173.901108	219.916454	-209.584724	1143.819900	86.604877	274.201607	960.463421	378.031406	-261.852850	880.345825	49.252412
1857	18.56000	26.263666	933.033141	146.454835	-6.835387	1488.155816	242.832970	-19.015206	1571.044405	391.930326	105.647940	934.034920	142.887400	-53.120548	932.031412	150.022105	132.511157	503.895919	169.811338	-83.836118	531.470741	351.702478	101.877057	207.989048	-131.100152	-105.890027	101.436044	388.179829	94.004727	194.720905	-185.824180	-108.203839	43.517786	363.239041	92.285187	44.608214	-47.991104	-104.955400	77.416020	593.324503	176.191862	1452.901024	220.948627	-172.603013	1424.676756	182.599598	271.758944	1174.235456	218.817534	-213.037639	1143.996197	90.273761	271.605685	960.260363	375.093668	-263.530501	881.366370	54.910684
1858	18.57000	24.060666	933.642847	147.560893	-8.316887	1488.810120	244.143086	-20.010833	1571.163320	393.527783	103.453861	934.436956	144.126416	-55.332451	932.848777	150.995223	130.896208	505.729487	179.195444	-85.140345	530.154651	344.750117	100.918179	209.543385	-116.800947	-105.916510	100.884392	374.909966	93.168293	196.036359	-171.067811	-108.197097	43.266457	349.385965	90.810203	47.511094	-33.254744	-104.510779	75.478938	579.691009	174.595687	1453.742284	220.707637	-174.618734	1425.392405	185.419278	269.411041	1174.848533	216.018070	-215.582321	1144.361264	96.698961	271.236065	959.445705	368.571500	-263.531799	883.260098	67.155269
1859	18.58000	21.857666	934.252553	148.666951	-9.798386	1489.464424	245.453202	-21.006460	1571.282236	395.125241	101.259782	934.838993	145.365433	-57.544355	933.666142	151.968342	129.281259	507.563055	188.579549	-86.444572	528.838561	337.797756	99.959300	211.097722	-102.501742	-105.942992	100.332741	361.640103	92.331859	197.351813	-156.311442	-108.190355	43.015128	335.532889	89.335219	50.413974	-18.518384	-104.066158	73.541855	566.057516	172.999512	1454.583544	220.466647	-176.634455	1426.108055	188.238958	267.063138	1175.461609	213.218606	-218.127003	1144.726331	103.124161	270.866445	958.631047	362.049331	-263.533097	885.153827	79.399855
